<?xml version="1.0" standalone="no"?>
<!DOCTYPE svg PUBLIC "-//W3C//DTD SVG 1.1//EN" "http://www.w3.org/Graphics/SVG/1.1/DTD/svg11.dtd" >
<svg>
<metadata>
Created by FontForge 20090622 at Fri Jul 15 09:03:08 2016
 By deploy user
Copyright SoftMaker Software GmbH 1995
</metadata>
<defs>
<font id="FunctionTwo-Regular" horiz-adv-x="492" >
  <font-face 
    font-family="FunctionTwo"
    font-weight="400"
    font-stretch="normal"
    units-per-em="1000"
    panose-1="0 0 0 0 0 0 0 0 0 0"
    ascent="800"
    descent="-200"
    x-height="435"
    cap-height="706"
    bbox="-170 -215 979 931"
    underline-thickness="40"
    underline-position="-105"
    unicode-range="U+0020-U+2215"
  />
<missing-glyph horiz-adv-x="700" 
d="M43 0v700h614v-700h-614zM614 43v614h-528v-614h528z" />
    <glyph glyph-name=".notdef" horiz-adv-x="700" 
d="M43 0v700h614v-700h-614zM614 43v614h-528v-614h528z" />
    <glyph glyph-name=".null" horiz-adv-x="0" 
 />
    <glyph glyph-name="nonmarkingreturn" horiz-adv-x="256" 
 />
    <glyph glyph-name="space" unicode=" " horiz-adv-x="256" 
 />
    <glyph glyph-name="exclam" unicode="!" horiz-adv-x="236" 
d="M150 124q26 0 45.5 -20.5t19.5 -47.5q0 -26 -20.5 -45.5t-47.5 -19.5t-46 21t-19 48q0 28 20 46t48 18zM110 706h79v-523h-79v523z" />
    <glyph glyph-name="quotedbl" unicode="&#x22;" horiz-adv-x="281" 
d="M83 712l77 -24l-95 -215l-60 19zM214 712l77 -26l-95 -213l-60 19z" />
    <glyph glyph-name="numbersign" unicode="#" horiz-adv-x="493" 
d="M100 206h-97v67h107l26 193h-107v68h117l29 206h69l-29 -206h124l29 206h69l-29 -206h83v-67h-93l-27 -194h92v-67h-101l-29 -206h-69l29 206h-124l-29 -206h-69zM206 467l-27 -194h123l27 194h-123z" />
    <glyph glyph-name="dollar" unicode="$" horiz-adv-x="414" 
d="M70 167q13 -50 33 -74q27 -33 71 -33v272q-81 44 -114 81q-46 52 -46 129q0 72 43.5 118t116.5 57v98h52l1 -98q63 0 98 -32q21 -19 60 -90l-72 -40q-14 37 -31 55q-21 22 -56 31v-240q82 -51 116 -87q54 -58 54 -131q0 -79 -46 -132t-124 -63v-115h-52v114
q-69 0 -115.5 38.5t-67.5 106.5zM311 174q0 44 -24 74q-14 18 -61 52v-239q39 9 62 40.5t23 72.5zM174 643q-38 -6 -57.5 -30.5t-19.5 -63.5t20.5 -70t56.5 -49v213z" />
    <glyph glyph-name="percent" unicode="%" horiz-adv-x="748" 
d="M516 737l45 -23l-370 -749l-46 23zM589 450q74 0 106 -79q23 -57 23 -145q0 -93 -23 -151q-34 -84 -113 -84q-78 0 -111 75q-24 54 -24 144q0 99 23 156q34 84 119 84zM584 48q34 0 51 44t17 134q0 65 -9 102q-16 67 -61 67q-43 0 -60 -68q-10 -40 -10 -104
q0 -65 10 -105q17 -70 62 -70zM130 714q75 0 107 -78q23 -56 23 -144q0 -125 -40 -185q-34 -51 -96 -51q-77 0 -111 76q-24 54 -24 144q0 128 41 187q35 51 100 51zM125 313q35 0 51.5 44t16.5 140q0 64 -9 99q-16 63 -61 63q-42 0 -59 -68q-11 -44 -11 -104
q0 -89 18.5 -131.5t53.5 -42.5z" />
    <glyph glyph-name="ampersand" unicode="&#x26;" horiz-adv-x="591" 
d="M88 567q0 67 47 107t115 40q67 0 113 -41t46 -108q0 -55 -39 -106q-34 -44 -88 -73l142 -177l34 41q47 56 58 70l59 -58l-98 -118l117 -144h-106l-69 86q-58 -48 -94 -67q-53 -28 -111 -28q-83 0 -142.5 55.5t-59.5 139.5q0 76 41 130q28 37 105 91q-33 40 -49 74
q-21 43 -21 86zM210 345q-47 -25 -77 -60q-35 -41 -35 -89q0 -49 34.5 -87t83.5 -38q39 0 80.5 23t69.5 56zM174 555q0 -13 24.5 -61t33.5 -48q26 0 59.5 44.5t33.5 71.5q0 33 -21 55t-55 22t-54.5 -24.5t-20.5 -59.5z" />
    <glyph glyph-name="quotesingle" unicode="'" horiz-adv-x="182" 
d="M136 713l60 -25l-97 -250l-80 31z" />
    <glyph glyph-name="parenleft" unicode="(" horiz-adv-x="217" 
d="M218 721q-48 -104 -74.5 -219.5t-26.5 -227.5q0 -116 24.5 -223.5t76.5 -208.5l-61 -31q-110 214 -110 455q0 103 20 212t58 197l33 71z" />
    <glyph glyph-name="parenright" unicode=")" horiz-adv-x="217" 
d="M93 284q0 115 -24.5 217t-75.5 213l55 37q58 -101 86.5 -220t28.5 -242q0 -126 -29 -243.5t-86 -240.5l-55 30q47 115 73.5 226.5t26.5 222.5z" />
    <glyph glyph-name="asterisk" unicode="*" horiz-adv-x="414" 
d="M149 545l-113 63l29 49l108 -66v125h55v-125l108 66l29 -49l-113 -63l113 -62l-29 -48l-108 64v-127h-55v127l-108 -64l-29 48z" />
    <glyph glyph-name="plus" unicode="+" horiz-adv-x="630" 
d="M10 331h249v249h80v-249h251v-80h-251v-251h-80v251h-249v80z" />
    <glyph glyph-name="comma" unicode="," horiz-adv-x="197" 
d="M94 122l78 -32l-116 -244l-59 26z" />
    <glyph glyph-name="hyphen" unicode="-" horiz-adv-x="315" 
d="M28 311h251v-71h-251v71z" />
    <glyph glyph-name="period" unicode="." horiz-adv-x="197" 
d="M99 118q27 0 46 -20t19 -47q0 -20 -16.5 -41.5t-36.5 -21.5h-16q-26 0 -44.5 19.5t-18.5 46.5t19.5 45.5t47.5 18.5z" />
    <glyph glyph-name="slash" unicode="/" horiz-adv-x="473" 
d="M300 706h76l-314 -706h-76z" />
    <glyph glyph-name="zero" unicode="0" horiz-adv-x="473" 
d="M231 717q91 0 142 -69q40 -55 56 -157q11 -71 11 -167q0 -127 -44 -218q-57 -118 -170 -118q-122 0 -175 123q-39 90 -39 230q0 99 12 164q18 96 61 148q53 64 146 64zM226 66q79 0 107 119q15 64 15 183q0 111 -15 168q-28 106 -107 106t-107 -102q-16 -58 -16 -167
q0 -128 13 -186q27 -121 110 -121z" />
    <glyph glyph-name="one" unicode="1" horiz-adv-x="473" 
d="M105 706h190v-706h-84v622h-141z" />
    <glyph glyph-name="two" unicode="2" horiz-adv-x="473" 
d="M174 84h246v-84h-395v19l108 135q129 161 133 167q77 111 77 193q0 53 -32 86t-85 33q-66 0 -94 -45q-23 -37 -23 -108h-86l-2 33q0 93 57.5 148.5t150.5 55.5q89 0 146 -56t57 -146q0 -75 -44 -158q-34 -65 -102 -146z" />
    <glyph glyph-name="three" unicode="3" horiz-adv-x="473" 
d="M90 183q0 -55 35 -88t91 -33q57 0 92.5 40.5t35.5 98.5q0 64 -40.5 95.5t-105.5 31.5l-30 -2l-1 79l18 -1q71 0 102 24q36 28 36 97q0 53 -24 84q-28 36 -79 36q-60 0 -86.5 -30.5t-26.5 -91.5h-81v16q0 85 53 132t140 47q89 0 141 -51t52 -140q0 -57 -23 -96
q-26 -44 -78 -61q56 -15 88 -64t32 -110q0 -89 -61.5 -148.5t-151.5 -59.5q-93 0 -146 41q-56 44 -66 135l-2 19h86z" />
    <glyph glyph-name="four" unicode="4" horiz-adv-x="473" 
d="M338 723h24v-497h87v-73h-87v-153h-82v153h-309zM279 226v147q0 50 1.5 81.5t5.5 68.5q-40 -72 -87 -149l-93 -148h173z" />
    <glyph glyph-name="five" unicode="5" horiz-adv-x="473" 
d="M57 156q25 -41 59 -64t80 -23q63 0 102 51q36 47 36 113q0 69 -40.5 114.5t-109.5 45.5q-37 0 -70 -13q-22 -9 -65 -34l-13 4l88 355h292v-83h-230l-39 -163q34 10 73 10q89 0 147 -70q55 -67 55 -158q0 -108 -63.5 -180.5t-170.5 -72.5q-62 0 -116.5 33t-86.5 87z" />
    <glyph glyph-name="six" unicode="6" horiz-adv-x="473" 
d="M299 717l65 -45l-79 -108l-136 -178q24 13 49 21.5t51 8.5q85 0 139.5 -59.5t54.5 -145.5q0 -99 -59 -161t-157 -62q-96 0 -158 64t-62 161q0 74 54 174q39 72 120 179zM228 68q57 0 94.5 39.5t37.5 96.5q0 61 -36.5 100.5t-97.5 39.5q-56 0 -96 -39t-40 -96
q0 -63 37 -102t101 -39z" />
    <glyph glyph-name="seven" unicode="7" horiz-adv-x="473" 
d="M316 617h-303v89h436v-13l-376 -713l-83 37z" />
    <glyph glyph-name="eight" unicode="8" horiz-adv-x="473" 
d="M37 532q0 83 55 134t138 51q80 0 133.5 -50.5t53.5 -130.5q0 -56 -22 -99t-69 -68q57 -32 83 -74.5t26 -105.5q0 -90 -60.5 -145.5t-150.5 -55.5q-92 0 -149 57t-57 149q0 55 30 104.5t79 68.5q-45 23 -67.5 67.5t-22.5 97.5zM230 70q53 0 87.5 34.5t34.5 87.5
q0 59 -35 96t-93 37q-52 0 -86 -39t-34 -92q0 -56 35 -90t91 -34zM225 409q53 0 82.5 37.5t29.5 92.5q0 44 -30 76t-75 32q-53 0 -84 -34t-31 -87q0 -49 30 -83t78 -34z" />
    <glyph glyph-name="nine" unicode="9" horiz-adv-x="473" 
d="M154 -12l-67 46l212 285q-43 -28 -97 -28q-86 0 -140 58t-54 146q0 92 58 157t149 65q99 0 163.5 -61.5t64.5 -160.5q0 -71 -54 -173q-38 -72 -119 -181zM219 362q65 0 102 40t37 105q0 54 -38 92t-92 38q-61 0 -99.5 -37.5t-38.5 -98.5q0 -59 35 -99t94 -40z" />
    <glyph glyph-name="colon" unicode=":" horiz-adv-x="236" 
d="M148 125q27 0 46 -19t19 -47q0 -29 -18 -48t-48 -19q-28 0 -47 20t-19 48q0 27 20 46t47 19zM147 379q27 0 47 -20t20 -47q0 -28 -19 -47t-48 -19q-28 0 -47 19t-19 47t18.5 47.5t47.5 19.5z" />
    <glyph glyph-name="semicolon" unicode=";" horiz-adv-x="236" 
d="M140 125l79 -32l-112 -247l-62 25zM160 379q28 0 48.5 -18.5t20.5 -47.5q0 -27 -20 -46t-48 -19q-27 0 -46 18t-19 46q0 27 18 47t46 20z" />
    <glyph glyph-name="less" unicode="&#x3c;" horiz-adv-x="539" 
d="M521 446l-425 -193l425 -193v-68l-508 230v62l508 230v-68z" />
    <glyph glyph-name="equal" unicode="=" horiz-adv-x="630" 
d="M-39 239h666v-78h-666v78zM-39 420h666v-78h-666v78z" />
    <glyph glyph-name="greater" unicode="&#x3e;" horiz-adv-x="539" 
d="M19 60l425 193l-425 193v68l508 -230v-62l-508 -230v68z" />
    <glyph glyph-name="question" unicode="?" horiz-adv-x="394" 
d="M221 124q26 0 45 -20t19 -46q0 -29 -20 -48t-49 -19q-24 0 -44 20t-20 45q0 30 20 49t49 19zM217 711q64 0 109.5 -39.5t45.5 -103.5q0 -90 -105.5 -153.5t-105.5 -115.5q0 -25 14 -44t39 -19q35 0 51 29q13 23 13 61l81 -1v-11q0 -62 -40 -103t-102 -41t-100 35t-38 96
q0 68 55 115l102 69q56 40 56 90q0 31 -21.5 48.5t-52.5 17.5q-43 0 -61.5 -28t-18.5 -74l-81 2q0 79 40.5 124.5t119.5 45.5z" />
    <glyph glyph-name="at" unicode="@" horiz-adv-x="1015" 
d="M529 500q-64 0 -110 -67q-41 -60 -41 -128q0 -41 22 -69t62 -28q61 0 107 71q42 65 42 129q0 35 -23.5 63.5t-58.5 28.5zM662 556h69l-73 -246q-7 -26 -12.5 -49.5t-5.5 -30.5q0 -12 2.5 -20.5t18.5 -8.5q60 0 104 80q38 70 38 136q0 117 -80 187.5t-199 70.5
q-132 0 -218 -93t-86 -227q0 -132 89 -222t223 -90q70 0 134.5 30t107.5 84h67q-49 -82 -132 -129t-180 -47q-160 0 -271 110t-111 270q0 155 110.5 265.5t266.5 110.5q139 0 239 -85q105 -90 105 -227q0 -101 -68 -191q-74 -98 -171 -98q-28 0 -46 17t-18 46
q-26 -28 -57.5 -45.5t-64.5 -17.5q-64 0 -105.5 47.5t-41.5 112.5q0 105 62 187q67 89 169 89q39 0 68.5 -20.5t46.5 -57.5z" />
    <glyph glyph-name="A" unicode="A" horiz-adv-x="591" 
d="M275 723h7l306 -723h-96l-84 203h-264l-85 -203h-95zM375 277l-98 247l-101 -247h199z" />
    <glyph glyph-name="B" unicode="B" horiz-adv-x="473" 
d="M39 706h146q99 0 156 -35q71 -43 71 -136q0 -56 -23.5 -94t-72.5 -69q124 -43 124 -174q0 -112 -76 -159q-62 -39 -181 -39h-144v706zM355 202q0 59 -42.5 90.5t-103.5 31.5h-81v-245l54 -1q105 0 142 35q31 30 31 89zM194 401q58 0 94 33t36 91t-46 82q-35 18 -99 18
h-51v-224h66z" />
    <glyph glyph-name="C" unicode="C" horiz-adv-x="591" 
d="M543 569q-46 30 -87 46q-50 19 -97 19q-120 0 -191 -87q-66 -81 -66 -204q0 -110 77 -191t186 -81q115 0 190 81v-111q-47 -24 -98.5 -38.5t-101.5 -14.5q-146 0 -246.5 105.5t-100.5 253.5q0 157 93 261q97 109 253 109q53 0 99.5 -10.5t89.5 -35.5v-102z" />
    <glyph glyph-name="D" unicode="D" horiz-adv-x="591" 
d="M32 706h136q190 0 288 -87q103 -91 103 -279q0 -16 -1 -26t-4 -29q-26 -162 -125 -227q-88 -58 -259 -58h-138v706zM158 82q162 0 231 55q79 63 79 221q0 142 -85 206q-76 57 -223 57h-39v-539h37z" />
    <glyph glyph-name="E" unicode="E" horiz-adv-x="453" 
d="M40 706h369v-85h-279v-198h276v-78h-276v-262h282v-83h-372v706z" />
    <glyph glyph-name="F" unicode="F" horiz-adv-x="414" 
d="M43 706h350v-86h-261v-199h256v-82h-256v-339h-89v706z" />
    <glyph glyph-name="G" unicode="G" horiz-adv-x="708" 
d="M592 516q-37 51 -98 84.5t-122 33.5q-116 0 -196.5 -83.5t-80.5 -200.5q0 -119 77.5 -197.5t196.5 -78.5q91 0 152.5 59.5t61.5 148.5h-188v85l287 1l1 -48q0 -142 -90 -237t-232 -95q-145 0 -253 101t-108 246q0 164 96 271q101 112 263 112q102 0 167 -29.5t135 -107.5
z" />
    <glyph glyph-name="H" unicode="H" horiz-adv-x="611" 
d="M31 706h88v-286h349v286h88v-706h-88v339h-349v-339h-88v706z" />
    <glyph glyph-name="I" unicode="I" horiz-adv-x="197" 
d="M57 706h90v-706h-90v706z" />
    <glyph glyph-name="J" unicode="J" horiz-adv-x="335" 
d="M40 132q14 -25 35 -40t48 -15q41 0 54 39q7 21 7 73v517h90v-539q0 -76 -35 -124q-39 -54 -113 -54q-45 0 -79 18t-66 55z" />
    <glyph glyph-name="K" unicode="K" horiz-adv-x="512" 
d="M37 706h89v-303l253 303h108l-265 -314l97 -132l99 -130l100 -130h-114l-278 370v-370h-89v706z" />
    <glyph glyph-name="L" unicode="L" horiz-adv-x="374" 
d="M45 706h89v-624h226v-82h-315v706z" />
    <glyph glyph-name="M" unicode="M" horiz-adv-x="768" 
d="M113 723h16l193 -462q25 -60 41 -116q46 128 115 290l124 288h15l125 -724h-89q-45 262 -50 296q-14 93 -23 180q-30 -83 -64.5 -165l-68.5 -161.5l-70 -165.5h-27l-69 163l-69 163q-44 106 -66 165q-9 -75 -22 -156l-26 -160.5l-26 -158.5h-88z" />
    <glyph glyph-name="N" unicode="N" horiz-adv-x="689" 
d="M26 720h22l168 -179l169 -179l166 -182v526h83v-720h-22l-465 501l-34 39v-526h-87v720z" />
    <glyph glyph-name="O" unicode="O" horiz-adv-x="768" 
d="M364 717q158 0 263.5 -101.5t105.5 -259.5q0 -154 -107 -261t-262 -107q-161 0 -264 103t-103 265q0 155 106 258t261 103zM358 72q122 0 201.5 80.5t79.5 203.5q0 121 -75.5 199.5t-197.5 78.5q-123 0 -199 -82t-76 -205q0 -115 76 -195t191 -80z" />
    <glyph glyph-name="P" unicode="P" horiz-adv-x="414" 
d="M43 706h132q113 0 172 -43q68 -49 68 -158q0 -85 -47.5 -136.5t-132.5 -59.5q-23 -2 -56.5 -2h-45.5v-307h-90v706zM183 387q67 0 102 23q42 28 42 92q0 73 -41 101q-35 24 -111 24h-43v-240h51z" />
    <glyph glyph-name="Q" unicode="Q" horiz-adv-x="768" 
d="M743 -43q-42 -8 -80 -8l-27 1l-86 86q-49 -25 -92 -36.5t-94 -11.5q-152 0 -258 96q-110 100 -110 251q0 164 106.5 272.5t270.5 108.5q149 0 254.5 -105.5t105.5 -254.5q0 -76 -31.5 -150.5t-88.5 -121.5zM329 251q56 6 108 6l114 -113q47 56 65 96q23 50 23 114
q0 113 -78 196t-191 83q-115 0 -196.5 -79.5t-81.5 -194.5q0 -127 75.5 -209.5t201.5 -82.5q37 0 59.5 5.5t59.5 22.5z" />
    <glyph glyph-name="R" unicode="R" horiz-adv-x="453" 
d="M40 706h165q102 0 161 -40q69 -47 69 -145q0 -83 -45 -132t-129 -59l195 -330h-104l-183 324h-39v-324h-90v706zM345 517q0 60 -43 87q-35 22 -100 22h-72v-227h52q100 0 134 33q29 28 29 85z" />
    <glyph glyph-name="S" unicode="S" horiz-adv-x="433" 
d="M84 175q13 -47 40 -75q31 -33 76 -33q52 0 78.5 33.5t26.5 86.5q0 60 -72 107l-134 84q-72 59 -72 149q0 85 48.5 137.5t133.5 52.5q60 0 106 -33q41 -29 71 -86l-71 -40q-19 35 -40 54q-27 24 -62 24q-52 0 -76.5 -29t-24.5 -82q0 -52 72 -96q134 -83 136 -84
q73 -61 73 -153q0 -85 -51.5 -144.5t-135.5 -59.5q-70 0 -126.5 41t-72.5 108z" />
    <glyph glyph-name="T" unicode="T" horiz-adv-x="414" 
d="M-25 706h437v-83h-174v-623h-90v623h-173v83z" />
    <glyph glyph-name="U" unicode="U" horiz-adv-x="611" 
d="M31 706h89v-436q0 -94 38 -143q42 -54 135 -54q83 0 129.5 46.5t46.5 130.5v456h87v-442q0 -137 -64.5 -206.5t-200.5 -69.5q-130 0 -195 67t-65 198v453z" />
    <glyph glyph-name="V" unicode="V" horiz-adv-x="551" 
d="M66 706l101 -265q57 -153 92 -268q5 21 13 46.5t18 52.5l167 434h92l-284 -723h-21l-278 723h100z" />
    <glyph glyph-name="W" unicode="W" horiz-adv-x="926" 
d="M38 706l134 -358l58 -170l60 184l65 182l66 182h24l67.5 -184.5t63.5 -177.5q33 -101 54 -187l73 199l129 330h89l-282 -721h-23q-13 34 -64 177q-47 130 -63 178q-26 77 -57 181l-62.5 -179.5l-63.5 -178.5l-64 -178h-24l-275 721h95z" />
    <glyph glyph-name="X" unicode="X" 
d="M177 361l-198 345l99 -1l150 -274l149 275h101l-202 -345l214 -361l-101 -1q-89 148 -161 291l-161 -290h-97z" />
    <glyph glyph-name="Y" unicode="Y" horiz-adv-x="512" 
d="M71 706l89 -151q50 -86 82 -157q31 67 82 156l89 152h97l-226 -394v-312h-90v318l-225 388h102z" />
    <glyph glyph-name="Z" unicode="Z" 
d="M327 626h-298v80h448l-359 -624h359v-82h-507z" />
    <glyph glyph-name="bracketleft" unicode="[" horiz-adv-x="236" 
d="M71 751h172v-67h-95v-809h95v-66h-172v942z" />
    <glyph glyph-name="backslash" unicode="\" horiz-adv-x="278" 
d="M-17 737h66l246 -756h-67z" />
    <glyph glyph-name="bracketright" unicode="]" horiz-adv-x="236" 
d="M-10 -125h95v809h-95v67h172v-942h-172v66z" />
    <glyph glyph-name="asciicircum" unicode="^" horiz-adv-x="0" 
d="M0 901l156 -108l-45 -46l-111 67l-108 -67l-44 47z" />
    <glyph glyph-name="underscore" unicode="_" horiz-adv-x="556" 
d="M0 -125v50h556v-50h-556z" />
    <glyph glyph-name="grave" unicode="`" horiz-adv-x="0" 
d="M-47 658l126 -131l-47 -38l-143 118z" />
    <glyph glyph-name="a" unicode="a" 
d="M365 435h78v-435h-78l-1 69q-31 -41 -68 -59.5t-88 -18.5q-94 0 -149 68q-51 63 -51 159q0 93 59 159.5t151 66.5q43 0 80 -20q29 -16 67 -51v62zM232 64q64 0 101 43t37 109q0 62 -35 107q-38 49 -98 49q-68 0 -107.5 -43.5t-39.5 -112.5q0 -66 38 -109t104 -43z" />
    <glyph glyph-name="b" unicode="b" 
d="M29 747h79v-375q27 34 67.5 53.5t85.5 19.5q92 0 150 -70q54 -66 54 -160q0 -91 -53 -155q-57 -69 -147 -69q-42 0 -87 18t-70 49v-58h-79v747zM245 64q63 0 101.5 42.5t38.5 105.5q0 67 -33 110q-37 48 -102 48q-66 0 -104 -41t-38 -108t35.5 -112t101.5 -45z" />
    <glyph glyph-name="c" unicode="c" horiz-adv-x="374" 
d="M360 328q-31 20 -60.5 29.5t-64.5 9.5q-57 0 -98 -46t-41 -105q0 -62 42.5 -103.5t103.5 -41.5q67 0 118 48l1 -95q-27 -17 -59 -25t-66 -8q-93 0 -157.5 63.5t-64.5 156.5q0 100 64.5 166.5t164.5 66.5q29 0 61.5 -8.5t55.5 -23.5v-84z" />
    <glyph glyph-name="d" unicode="d" 
d="M363 747h80v-747h-80l-1 67q-34 -40 -70.5 -58t-89.5 -18q-88 0 -143 66q-51 62 -51 152q0 103 55.5 169t156.5 66q42 0 78 -17.5t65 -51.5v372zM222 65q66 0 104.5 43.5t38.5 110.5q0 64 -38 107t-101 43q-66 0 -102 -44.5t-36 -112.5q0 -61 37 -104t97 -43z" />
    <glyph glyph-name="e" unicode="e" horiz-adv-x="453" 
d="M90 204v-19q0 -46 40.5 -84t87.5 -38q44 0 77 20.5t57 60.5l60 -43q-40 -57 -84.5 -83.5t-109.5 -26.5q-90 0 -149.5 64.5t-59.5 156.5q0 100 54 164q58 69 156 69q93 0 148 -65q52 -61 52 -156v-20h-329zM339 272q-7 46 -36 76q-32 33 -77 33q-54 0 -85.5 -27.5
t-46.5 -81.5h245z" />
    <glyph glyph-name="f" unicode="f" horiz-adv-x="276" 
d="M10 435h65v179q0 66 29.5 104t94.5 38q19 0 36.5 -0.5t38.5 -5.5v-84q-26 13 -54 13q-30 0 -46.5 -18.5t-16.5 -48.5v-177h114v-71h-114v-364h-82v364h-65v71z" />
    <glyph glyph-name="g" unicode="g" 
d="M363 435h79v-444q0 -101 -55.5 -153.5t-158.5 -52.5q-95 0 -143.5 40.5t-59.5 134.5h80q0 -53 35 -80t91 -27q80 0 109 48q23 38 23 122v45q-26 -40 -64.5 -59t-86.5 -19q-95 0 -152 69q-53 64 -53 161q0 89 57.5 157t144.5 68q44 0 83.5 -20.5t70.5 -55.5v66zM224 62
q69 0 106.5 40.5t37.5 110.5q0 63 -34 108q-38 50 -99 50q-70 0 -108.5 -44t-38.5 -115q0 -63 37 -106.5t99 -43.5z" />
    <glyph glyph-name="h" unicode="h" horiz-adv-x="453" 
d="M31 747h83v-370q63 66 137 66q76 0 115.5 -43.5t39.5 -120.5v-279h-81v256q0 51 -18 80q-23 36 -71 36q-63 0 -92.5 -39t-29.5 -104v-229h-83v747z" />
    <glyph glyph-name="i" unicode="i" horiz-adv-x="177" 
d="M45 435h83v-435h-83v435zM86 680q25 0 43 -17t18 -43q0 -25 -17 -42t-43 -17q-25 0 -42 17t-17 42t16.5 42.5t41.5 17.5z" />
    <glyph glyph-name="j" unicode="j" horiz-adv-x="177" 
d="M47 435h83v-640h-83v640zM89 680q24 0 42 -18t18 -42t-18 -41t-43 -17q-24 0 -41 18t-17 42q0 26 16 42t43 16z" />
    <glyph glyph-name="k" unicode="k" horiz-adv-x="394" 
d="M35 747h83v-497l161 185h109l-189 -199l201 -236h-111l-171 209v-209h-83v747z" />
    <glyph glyph-name="l" unicode="l" horiz-adv-x="177" 
d="M51 747h82v-747h-82v747z" />
    <glyph glyph-name="m" unicode="m" horiz-adv-x="670" 
d="M18 435h80v-47q31 30 58.5 43t67.5 13q34 0 67 -18.5t48 -47.5q30 34 61 50t74 16q76 0 114 -45q35 -42 35 -119v-280h-84v284q0 42 -20 68t-61 26q-53 0 -77 -34q-20 -29 -20 -85v-259h-84v265q0 56 -13 79q-19 34 -70 34q-47 0 -69 -25q-27 -30 -27 -116v-237h-80v435z
" />
    <glyph glyph-name="n" unicode="n" horiz-adv-x="453" 
d="M31 435h80v-58q41 35 66 48q36 19 80 19q76 0 114 -49q35 -45 35 -124v-271h-81v273q0 41 -24 70.5t-65 29.5q-62 0 -93.5 -40t-31.5 -104v-229h-80v435z" />
    <glyph glyph-name="o" unicode="o" 
d="M243 444q92 0 155.5 -67.5t63.5 -161.5q0 -100 -67 -162t-168 -62q-92 0 -156.5 64.5t-64.5 157.5q0 100 67.5 165.5t169.5 65.5zM232 67q64 0 104.5 43.5t40.5 107.5q0 63 -41 106t-104 43q-56 0 -99 -44t-43 -101q0 -65 39 -110t103 -45z" />
    <glyph glyph-name="p" unicode="p" 
d="M29 435h80v-59q35 34 70.5 51t81.5 17q93 0 150 -67q54 -63 54 -158q0 -99 -52 -161q-56 -67 -153 -67q-49 0 -81.5 17t-69.5 57v-270h-80v640zM253 66q61 0 96 42t35 104q0 67 -33 110q-36 47 -102 47q-65 0 -103 -41t-38 -107q0 -71 37 -113t108 -42z" />
    <glyph glyph-name="q" unicode="q" 
d="M362 435h80v-640h-80l1 272q-38 -43 -71 -60t-87 -17q-93 0 -148 70q-50 64 -50 161q0 102 56.5 162.5t157.5 60.5q40 0 77 -20q30 -16 64 -50v61zM222 66q66 0 103.5 42.5t37.5 109.5q0 69 -38 109t-108 40q-62 0 -95.5 -44t-33.5 -108q0 -66 34.5 -107.5t99.5 -41.5z
" />
    <glyph glyph-name="r" unicode="r" horiz-adv-x="315" 
d="M40 435h83v-68q25 33 51 52q34 25 68 25q20 0 40 -9l39 -18l-40 -75q-17 14 -25 18q-14 7 -31 7q-64 0 -87 -58q-15 -38 -15 -114v-195h-83v435z" />
    <glyph glyph-name="s" unicode="s" horiz-adv-x="315" 
d="M58 110q17 -22 35.5 -34.5t41.5 -12.5q25 0 47 15t22 39q0 37 -93 82t-93 119q0 58 40.5 92t100.5 34q38 0 67.5 -18t54.5 -52l-68 -40q-7 15 -24 27t-35 12q-22 0 -40 -11t-18 -32q0 -31 92.5 -78t92.5 -121q0 -63 -38.5 -101.5t-100.5 -38.5q-46 0 -77.5 16.5
t-65.5 54.5z" />
    <glyph glyph-name="t" unicode="t" horiz-adv-x="236" 
d="M-8 435h68v162h83v-162h89v-72h-89v-363h-83v363h-68v72z" />
    <glyph glyph-name="u" unicode="u" horiz-adv-x="453" 
d="M31 435h82v-229q0 -69 20 -101q25 -41 90 -41q57 0 83 45q20 35 20 98v228h81v-256q0 -86 -49 -137t-135 -51q-102 0 -149 58q-43 53 -43 158v228z" />
    <glyph glyph-name="v" unicode="v" horiz-adv-x="433" 
d="M68 435q77 -161 137 -300l138 300h89l-212 -447h-32l-214 447h94z" />
    <glyph glyph-name="w" unicode="w" horiz-adv-x="630" 
d="M51 435l110 -287q27 71 75 187l47 112h26l97 -235q11 -25 13 -31q6 -16 10 -33l111 287h87l-184 -447h-28l-123 299l-58 -150l-62 -149h-26l-185 447h90z" />
    <glyph glyph-name="x" unicode="x" horiz-adv-x="414" 
d="M147 223l-161 212l104 -1l53 -71q31 -42 50 -74l55 74l57 72h97l-161 -212l171 -223h-103l-115 159l-119 -159h-100z" />
    <glyph glyph-name="y" unicode="y" horiz-adv-x="433" 
d="M69 435q75 -139 144 -282l134 282h85l-299 -626h-84l120 252l-195 374h95z" />
    <glyph glyph-name="z" unicode="z" horiz-adv-x="394" 
d="M-10 18l257 344h-231v73h367v-22l-256 -342h247v-71h-384v18z" />
    <glyph glyph-name="braceleft" unicode="{" horiz-adv-x="334" 
d="M42 294q55 0 72 67q8 32 8 112l-1 43q0 94 11 131q22 75 93 75h67v-65h-44q-27 0 -36.5 -25t-9.5 -57v-113l-1 -57q0 -43 -23 -84q-26 -46 -64 -56q55 -18 75 -83q13 -43 13 -118l-1 -87q0 -45 5 -66q10 -42 42 -42h44v-65h-67q-47 0 -74.5 40t-27.5 89v171q0 47 -17 83
q-22 47 -64 47v60z" />
    <glyph glyph-name="bar" unicode="|" horiz-adv-x="260" 
d="M94 737h73v-756h-73v756z" />
    <glyph glyph-name="braceright" unicode="}" horiz-adv-x="334" 
d="M292 234q-41 0 -63 -47q-18 -38 -18 -83v-171q0 -50 -25 -87q-29 -42 -77 -42h-67v65h44q31 0 41 41q5 21 5 67l-1 86q0 76 13 118q20 65 76 82q-38 11 -63 55t-25 86v171q0 34 -7 52q-11 30 -39 30h-44v65h67q64 0 88 -64q16 -42 16 -127q0 -16 -0.5 -30.5t-0.5 -27.5
q0 -79 8 -111q17 -68 72 -68v-60z" />
    <glyph glyph-name="asciitilde" unicode="~" horiz-adv-x="0" 
d="M-76 888q27 0 60 -18q75 -41 87 -41q19 0 36 28q7 13 15 26l58 -27q-23 -44 -45 -64q-30 -27 -72 -27q-28 0 -75 28t-59 28q-13 0 -27 -19q-9 -13 -16 -31l-55 24q29 57 33 62q23 31 60 31z" />
    <glyph glyph-name="c128" horiz-adv-x="513" 
d="M416 500l-73 -130h158v-53h-187l-75 -134h262v-52h-290l-87 -155l-47 27l71 128h-151v52h181l74 134h-255v53h285l87 157z" />
    <glyph glyph-name="c129" horiz-adv-x="667" 
d="M503 388q54 0 94 -39t40 -94q0 -54 -37.5 -95t-90.5 -41q-55 0 -104 32q-17 11 -85 71q-68 -60 -85 -71q-49 -32 -105 -32q-53 0 -91 42t-38 95q0 54 41 93t95 39q47 0 99 -34q27 -18 84 -69q55 51 83 69q52 34 100 34zM137 338q-35 0 -60.5 -26.5t-25.5 -62.5
q0 -35 27.5 -59.5t63.5 -24.5q40 0 81 29q16 12 66 59q-45 39 -70 55q-45 30 -82 30zM500 166q36 0 63 23.5t27 59.5q0 35 -25 62t-61 27q-37 0 -82 -29q-23 -15 -70 -56q46 -44 66 -58q41 -29 82 -29z" />
    <glyph glyph-name="quotesinglbase" unicode="&#x201a;" horiz-adv-x="182" 
d="M98 122l78 -32l-116 -244l-59 26z" />
    <glyph glyph-name="florin" unicode="&#x192;" horiz-adv-x="513" 
d="M488 0h-477v53h477v-53zM488 333l-477 -221v60l416 191l-416 191v59l477 -220v-60z" />
    <glyph glyph-name="quotedblbase" unicode="&#x201e;" horiz-adv-x="295" 
d="M76 103l77 -23l-95 -215l-60 19zM207 104l77 -26l-95 -213l-60 18z" />
    <glyph glyph-name="ellipsis" unicode="&#x2026;" horiz-adv-x="1000" 
d="M219 0h-104v106h104v-106zM552 0h-104v106h104v-106zM885 0h-104v106h104v-106z" />
    <glyph glyph-name="dagger" unicode="&#x2020;" horiz-adv-x="551" 
d="M5 474h216v283h85v-283h209v-84h-209v-579h-85v579h-216v84z" />
    <glyph glyph-name="daggerdbl" unicode="&#x2021;" horiz-adv-x="769" 
d="M652 3q0 -46 22.5 -62t70.5 -16v-22h-294v22q47 0 69.5 16t22.5 62v665h-343v-665q0 -46 22.5 -62t70.5 -16v-22h-295v22q49 0 69 14q24 17 24 64v601q0 95 -91 95v22h742v-22q-45 0 -67.5 -24.5t-22.5 -70.5v-601z" />
    <glyph glyph-name="circumflex" unicode="&#x2c6;" horiz-adv-x="0" 
d="M0 657l133 -123l-44 -44l-90 79l-94 -80l-42 42z" />
    <glyph glyph-name="perthousand" unicode="&#x2030;" horiz-adv-x="256" 
d="M50 -103q-23 0 -40 18t-17 41q0 16 13 28t29 12q13 0 30 -15t21 -15q11 0 18.5 27t7.5 67q0 74 -1 111q-5 186 -5 187v220q0 110 12 175q23 127 87 127q25 0 45 -15t20 -40q0 -18 -14.5 -29.5t-33.5 -11.5q-13 0 -27 11t-22 11q-11 0 -14.5 -8.5t-3.5 -21.5
q0 -44 12 -192q6 -74 6 -116l1 -106q0 -139 -8 -230q-15 -170 -54 -211q-9 -10 -28.5 -17t-33.5 -7z" />
    <glyph glyph-name="Scaron" unicode="&#x160;" horiz-adv-x="717" 
d="M291 0h-283v156h15q6 -32 18.5 -45.5t43.5 -13.5h152l-2 26q-98 29 -152 93q-57 67 -57 168q0 128 97 205q90 71 223 71q131 0 220 -72q96 -77 96 -206q0 -100 -54.5 -164.5t-153.5 -93.5l-2 -27h153q30 0 43.5 14t18.5 45h15v-156h-284l16 146q75 32 108 96
q28 55 28 144q0 108 -47 172q-53 72 -158 72t-158 -71q-48 -64 -48 -173q0 -88 28 -144q32 -64 108 -96z" />
    <glyph glyph-name="guilsinglleft" unicode="&#x2039;" horiz-adv-x="333" 
d="M245 108l-157 123v92l157 123v-88l-105 -81l105 -81v-88z" />
    <glyph glyph-name="OE" unicode="&#x152;" horiz-adv-x="1004" 
d="M611 708h368v-84h-280v-202h280v-78h-280v-262h280v-82h-368l1 111q-48 -62 -124 -94q-70 -29 -155 -29q-147 0 -249 103t-102 250q0 159 100.5 267.5t258.5 108.5q85 0 150 -27.5t120 -90.5v109zM342 71q119 0 200 80t81 199t-77 201t-196 82q-120 0 -197 -83t-77 -204
q0 -113 77 -194t189 -81z" />
    <glyph glyph-name="c141" horiz-adv-x="572" 
d="M565 0h-578l307 660zM50 47h396l-187 449z" />
    <glyph glyph-name="c142" horiz-adv-x="462" 
d="M189 0l-187 362l187 353h57l186 -353l-186 -362h-57zM217 663l-157 -301l157 -310l158 310z" />
    <glyph glyph-name="c143" horiz-adv-x="632" 
 />
    <glyph glyph-name="quoteleft" unicode="&#x2018;" horiz-adv-x="197" 
d="M133 713l60 -25l-97 -250l-80 31z" />
    <glyph glyph-name="quoteright" unicode="&#x2019;" horiz-adv-x="158" 
d="M34 706h88v-59q0 -43 -8 -78t-27 -76l-44 14q13 25 19 51t6 54h-34v94z" />
    <glyph glyph-name="quotedblleft" unicode="&#x201c;" horiz-adv-x="295" 
d="M223 712l60 -19l-77 -219l-78 23zM92 712l60 -18l-78 -221l-77 26z" />
    <glyph glyph-name="quotedblright" unicode="&#x201d;" horiz-adv-x="295" 
d="M76 712l77 -24l-95 -215l-60 19zM207 712l77 -26l-95 -213l-60 19z" />
    <glyph glyph-name="bullet" unicode="&#x2022;" horiz-adv-x="333" 
d="M297 353q0 -55 -36.5 -92.5t-91.5 -37.5q-54 0 -93.5 38.5t-39.5 91.5t39.5 91.5t93.5 38.5t91 -38t37 -92z" />
    <glyph glyph-name="endash" unicode="&#x2013;" horiz-adv-x="473" 
d="M18 311h418v-72h-418v72z" />
    <glyph glyph-name="emdash" unicode="&#x2014;" horiz-adv-x="630" 
d="M-39 331h666v-79h-666v79z" />
    <glyph glyph-name="tilde" unicode="&#x2dc;" horiz-adv-x="0" 
d="M-80 646q31 0 65 -18q77 -40 87 -40q12 0 22 10.5t28 43.5l57 -27q-27 -48 -42 -63q-28 -28 -69 -28q-32 0 -80 28t-58 28q-15 0 -28 -19q-7 -10 -16 -32l-56 24q24 47 33 60q24 33 57 33z" />
    <glyph glyph-name="trademark" unicode="&#x2122;" horiz-adv-x="832" 
d="M296 646l3 -93l-17 -1v8q0 43 -36 57q-21 8 -73 8v-300q0 -13 10.5 -19.5t37.5 -6.5v-18h-154v18q28 0 38.5 6t10.5 20l-1 300q-54 0 -74 -9q-34 -15 -34 -64l-18 1l3 93h304zM437 646l126 -276l121 276h108v-17h-9q-18 0 -28 -4.5t-10 -19.5v-280q0 -13 10.5 -19.5
t37.5 -6.5v-18h-154v18q28 0 38.5 6t10.5 20v266l-128 -310h-18l-138 295v-251q0 -17 17 -23q9 -3 32 -3v-18h-124v18q28 0 38.5 6t10.5 20v270q0 25 -12 29.5t-26 4.5h-13v17h110z" />
    <glyph glyph-name="guilsinglright" unicode="&#x203a;" horiz-adv-x="333" 
d="M88 196l105 81l-105 81v88l157 -123v-92l-157 -123v88z" />
    <glyph glyph-name="oe" unicode="&#x153;" horiz-adv-x="808" 
d="M577 442q99 0 153 -67q49 -61 49 -163v-8h-331q0 -58 39 -100t97 -42q37 0 76.5 24.5t54.5 58.5l57 -44q-34 -52 -82 -81t-108 -29q-57 0 -108 29t-72 81q-22 -50 -76.5 -80t-112.5 -30q-96 0 -159.5 65.5t-63.5 162.5q0 89 64.5 156.5t153.5 67.5q125 0 193 -109
q31 56 72.5 82t103.5 26zM219 65q63 0 103 46t40 111q0 62 -42 105t-105 43q-62 0 -102.5 -46.5t-40.5 -108.5q0 -61 43.5 -105.5t103.5 -44.5zM699 272q-9 48 -41 78.5t-79 30.5q-49 0 -80 -31q-27 -27 -42 -78h242z" />
    <glyph glyph-name="Ydieresis" unicode="&#x178;" horiz-adv-x="512" 
d="M257 832q0 24 20 36t46 12q23 0 35.5 -20t12.5 -44q0 -20 -18.5 -34.5t-39.5 -14.5q-27 0 -41.5 18.5t-14.5 46.5zM143 881q24 0 39 -18t15 -42q0 -21 -16.5 -37.5t-38.5 -16.5q-25 0 -42.5 16.5t-17.5 41.5q0 23 18.5 39.5t42.5 16.5zM71 706l89 -151q50 -86 82 -157
q31 67 82 156l89 152h97l-226 -394v-312h-90v318l-225 388h102z" />
    <glyph glyph-name="nonbreakingspace" unicode="&#xa0;" horiz-adv-x="256" 
 />
    <glyph glyph-name="exclamdown" unicode="&#xa1;" horiz-adv-x="236" 
d="M93 714q26 0 45.5 -20.5t19.5 -47.5q0 -26 -19.5 -45.5t-46.5 -19.5q-29 0 -48 20t-19 49q0 28 20 46t48 18zM51 522h78v-522h-78v522z" />
    <glyph glyph-name="cent" unicode="&#xa2;" horiz-adv-x="374" 
d="M200 76v285q-46 -13 -75 -54.5t-29 -90.5t28.5 -87.5t75.5 -52.5zM200 532h49v-89q27 0 57.5 -8t53.5 -23l1 -83q-33 21 -53 28q-27 10 -59 10v-296q33 0 58.5 11.5t52.5 36.5v-96q-51 -32 -111 -32v-95h-49v98q-80 13 -133 74.5t-53 142.5q0 86 51 150t135 79v92z" />
    <glyph glyph-name="sterling" unicode="&#xa3;" horiz-adv-x="473" 
d="M104 130q15 34 16 36q7 19 7 41t-3 35l-20 51h-122v58h93q-24 48 -35 79q-15 44 -15 85q0 88 63 144t152 56q92 0 145 -54q50 -51 62 -144l-81 -26q0 66 -30 105q-34 44 -97 44q-53 0 -89.5 -34.5t-36.5 -87.5q0 -33 19 -84q9 -23 36 -83h166v-58l-143 -1q4 -13 8 -28.5
t4 -37.5q0 -23 -7.5 -47.5t-19.5 -48.5q10 -3 69 -35q43 -23 73 -23q24 0 46 23q12 13 32 44l67 -35q-35 -58 -56 -77q-36 -34 -88 -34q-43 0 -108 33t-95 33q-29 0 -48 -20q-15 -16 -25 -48l-61 47q10 40 43 62.5t79 29.5z" />
    <glyph glyph-name="section" unicode="&#xa7;" horiz-adv-x="414" 
d="M36 638q0 75 45.5 117.5t121.5 42.5q80 0 125 -46t45 -126v-4h-83q-7 53 -21 71q-19 24 -69 24q-38 0 -60 -21t-22 -60q0 -49 70 -86l138 -72q73 -53 73 -137q0 -75 -31 -114q-27 -35 -100 -67q46 -20 71 -55.5t25 -85.5q0 -76 -48 -119t-125 -43q-74 0 -121 45t-47 118
v7h85q6 -47 25.5 -68t65.5 -21q38 0 61 24t23 62q0 53 -72 88q-134 66 -135 66q-73 52 -73 143q0 69 36.5 116t103.5 59q-52 25 -76 54q-31 36 -31 88zM200 219q50 0 80.5 29.5t30.5 80.5q0 50 -31 81t-82 31q-43 0 -77 -30.5t-34 -73.5q0 -56 29 -87t84 -31z" />
    <glyph glyph-name="dieresis" unicode="&#xa8;" horiz-adv-x="0" 
d="M90 646q22 0 39 -16t17 -39q0 -25 -15.5 -41.5t-40.5 -16.5q-24 0 -41.5 15.5t-17.5 39.5t17 41t42 17zM-83 648q22 0 38 -17t16 -39q0 -24 -15 -41t-40 -17q-24 0 -41.5 15.5t-17.5 39.5q0 25 17 42t43 17z" />
    <glyph glyph-name="copyright" unicode="&#xa9;" horiz-adv-x="739" 
d="M497 497l4 -123h-19q-8 44 -39.5 72.5t-75.5 28.5q-60 0 -97 -54q-33 -48 -33 -111q0 -67 32.5 -109t97.5 -42q41 0 64 10.5t61 41.5l11 -17q-33 -35 -66.5 -52.5t-76.5 -17.5q-83 0 -134 51t-51 134q0 79 51 135t128 56q19 0 53 -9.5t49 -9.5q19 0 23 16h18zM355 648
q137 0 234 -97t97 -234q0 -138 -96.5 -234.5t-234.5 -96.5q-137 0 -234 97t-97 234t97 234t234 97zM355 24q121 0 207 86t86 207t-86 207t-207 86t-207 -86t-86 -207t86 -207t207 -86z" />
    <glyph glyph-name="guillemotleft" unicode="&#xab;" horiz-adv-x="335" 
d="M131 413l54 -41l-117 -150l117 -153l-54 -40l-137 193zM274 408l56 -36l-111 -150l111 -152l-56 -37l-129 189z" />
    <glyph glyph-name="logicalnot" unicode="&#xac;" horiz-adv-x="667" 
d="M-9 276h639v-276h-53v224h-586v52z" />
    <glyph glyph-name="registered" unicode="&#xae;" horiz-adv-x="739" 
d="M354 -19q-137 0 -234 97t-97 234t97 234t234 97t234 -97t97 -234t-97 -234t-234 -97zM353 605q-122 0 -207 -86t-85 -208t86 -207t207 -85t207 86t86 207t-86 207t-208 86zM304 190q0 -16 13 -22t32 -6v-17h-153v17q18 0 29 4q18 7 18 21v277q0 17 -5.5 22.5t-18.5 5.5
h-18v18h164q53 0 87 -18q44 -23 44 -72q0 -41 -28.5 -68.5t-69.5 -27.5l115 -148q12 -14 35 -14v-17h-91l-128 170h-25v-125zM304 337q52 0 82 12q45 18 45 63q0 41 -17.5 56.5t-59.5 19.5l-31 2q-8 0 -14 -6t-6 -14z" />
    <glyph glyph-name="degree" unicode="&#xb0;" horiz-adv-x="256" 
d="M95 370q-59 0 -101.5 41.5t-42.5 101.5t42 102t102 42q59 0 101.5 -42.5t42.5 -101.5t-42 -101t-102 -42zM94 618q-44 0 -74.5 -30.5t-30.5 -74.5q0 -43 31 -74t75 -31t75 30t31 75q0 43 -32 74t-75 31z" />
    <glyph glyph-name="plusminus" unicode="&#xb1;" horiz-adv-x="513" 
d="M220 392v227h53v-227h227v-53h-227v-228h-53v228h-227v53h227zM-7 0v53h507v-53h-507z" />
    <glyph glyph-name="acute" unicode="&#xb4;" horiz-adv-x="0" 
d="M51 658l63 -51l-144 -118l-45 38z" />
    <glyph glyph-name="mu" unicode="&#xb5;" horiz-adv-x="538" 
d="M123 480v-319q0 -48 22.5 -79t68.5 -31q30 0 62.5 22.5t45.5 50.5v356h82v-369q0 -29 11 -51q15 -29 41 -29q27 0 37 22q8 31 14 45l19 -1q-11 -50 -37 -79q-31 -34 -80 -34q-42 0 -62 28q-14 19 -23 67q-29 -41 -65 -66q-43 -29 -87 -29q-24 0 -42 8q-4 2 -55 39v-22
q0 -27 15.5 -78.5t15.5 -75.5q0 -25 -11 -47t-34 -22t-35 21.5t-12 46.5q0 26 8 58q19 77 19 97v471h82z" />
    <glyph glyph-name="paragraph" unicode="&#xb6;" horiz-adv-x="667" 
d="M539 706v-54h-34v-819h-58v819h-144v-819h-58v486q-74 12 -115.5 62.5t-41.5 125.5q0 96 61.5 147.5t159.5 51.5h230z" />
    <glyph glyph-name="periodcentered" unicode="&#xb7;" horiz-adv-x="162" 
d="M91 359q26 0 45 -20t19 -47q0 -28 -18 -48t-47 -20q-30 0 -49.5 18.5t-19.5 48.5t20 49t50 19z" />
    <glyph glyph-name="periodcentered" unicode="&#x2219;" horiz-adv-x="162" 
d="M91 359q26 0 45 -20t19 -47q0 -28 -18 -48t-47 -20q-30 0 -49.5 18.5t-19.5 48.5t20 49t50 19z" />
    <glyph glyph-name="cedilla" unicode="&#xb8;" horiz-adv-x="0" 
d="M29 -33l64 -51l-106 -120l-54 43z" />
    <glyph glyph-name="guillemotright" unicode="&#xbb;" horiz-adv-x="335" 
d="M248 220l-117 153l53 40l138 -193l-138 -191l-53 40zM96 220l-110 152l55 37l130 -189l-130 -186l-55 36z" />
    <glyph glyph-name="questiondown" unicode="&#xbf;" horiz-adv-x="394" 
d="M163 714q28 0 45.5 -20.5t17.5 -50.5q0 -26 -19 -44t-45 -18q-30 0 -48 19t-18 49q0 28 19.5 46.5t47.5 18.5zM219 409q0 26 -13.5 42.5t-39.5 16.5q-36 0 -49.5 -25t-13.5 -64h-82v12q0 62 39.5 103.5t101.5 41.5q61 0 100 -35t39 -96q0 -68 -55 -116l-102 -70
q-56 -40 -56 -84q0 -35 20 -53t55 -18q42 0 62 31q17 26 17 71h82q-12 -85 -41 -123q-37 -48 -117 -48q-62 0 -108 36q-50 39 -50 99q0 80 54 127l102 65q55 36 55 87z" />
    <glyph glyph-name="Agrave" unicode="&#xc0;" horiz-adv-x="591" 
d="M206 905l155 -106l-36 -59l-165 92zM275 723h7l306 -723h-96l-84 203h-264l-85 -203h-95zM375 277l-98 247l-101 -247h199z" />
    <glyph glyph-name="Aacute" unicode="&#xc1;" horiz-adv-x="591" 
d="M326 906l45 -73l-163 -92l-38 57zM275 723h7l306 -723h-96l-84 203h-264l-85 -203h-95zM375 277l-98 247l-101 -247h199z" />
    <glyph glyph-name="Acircumflex" unicode="&#xc2;" horiz-adv-x="591" 
d="M264 901l155 -108l-43 -46l-112 67l-108 -67l-43 47zM275 723h7l306 -723h-96l-84 203h-264l-85 -203h-95zM375 277l-98 247l-101 -247h199z" />
    <glyph glyph-name="Atilde" unicode="&#xc3;" horiz-adv-x="591" 
d="M188 888q26 0 60 -18q75 -40 87 -40q16 0 30 19q2 2 20 34l56 -27q-23 -47 -43 -65q-28 -26 -72 -26q-26 0 -73 28t-60 28t-26 -19q-6 -9 -18 -31l-54 24q8 36 32 62q28 31 61 31zM276 723h7l306 -723h-96l-84 203h-264l-85 -203h-95zM376 277l-98 247l-101 -247h199z
" />
    <glyph glyph-name="Adieresis" unicode="&#xc4;" horiz-adv-x="591" 
d="M275 723h7l306 -723h-96l-84 203h-264l-85 -203h-95zM375 277l-49 123l-49 124l-101 -247h199zM463 710q23 0 41.5 -14.5t18.5 -37.5v-12q0 -18 -17 -33t-36 -15q-25 0 -42.5 14.5t-17.5 38.5q0 22 15.5 40.5t37.5 18.5zM77 709h12q22 0 37.5 -17.5t15.5 -40.5
q0 -24 -18 -39t-42 -15q-22 0 -37.5 18.5t-15.5 41.5q0 17 15.5 34.5t32.5 17.5z" />
    <glyph glyph-name="Aring" unicode="&#xc5;" horiz-adv-x="591" 
d="M280 931q38 0 65 -27t27 -66q0 -40 -26.5 -67.5t-67.5 -27.5t-67 27t-26 68q0 39 28 66t67 27zM278 792q19 0 32 12t13 32q0 19 -12.5 32.5t-32.5 13.5t-32 -13t-12 -33q0 -19 12.5 -31.5t31.5 -12.5zM275 723h7l306 -723h-96l-84 203h-264l-85 -203h-95zM375 277
l-98 247l-101 -247h199z" />
    <glyph glyph-name="AE" unicode="&#xc6;" horiz-adv-x="886" 
d="M248 706h379l36 -85h-321l83 -199h281l34 -78h-281l109 -263h288l36 -81h-391l-84 204h-290l-85 -204h-96zM382 288l-60 145q-34 85 -49 150q-18 -60 -37 -112q-6 -17 -73 -183h219z" />
    <glyph glyph-name="Ccedilla" unicode="&#xc7;" horiz-adv-x="591" 
d="M298 -33l65 -51l-107 -120l-53 43zM543 569q-46 30 -87 46q-50 19 -97 19q-120 0 -191 -87q-66 -81 -66 -204q0 -110 77 -191t186 -81q115 0 190 81v-111q-47 -24 -98.5 -38.5t-101.5 -14.5q-146 0 -246.5 105.5t-100.5 253.5q0 157 93 261q97 109 253 109
q53 0 99.5 -10.5t89.5 -35.5v-102z" />
    <glyph glyph-name="Egrave" unicode="&#xc8;" horiz-adv-x="453" 
d="M150 905l155 -106l-37 -59l-165 92zM40 706h369v-85h-279v-198h276v-78h-276v-262h282v-83h-372v706z" />
    <glyph glyph-name="Eacute" unicode="&#xc9;" horiz-adv-x="453" 
d="M270 906l45 -73l-164 -92l-37 57zM40 706h369v-85h-279v-198h276v-78h-276v-262h282v-83h-372v706z" />
    <glyph glyph-name="Ecircumflex" unicode="&#xca;" horiz-adv-x="453" 
d="M208 901l155 -108l-44 -46l-111 67l-109 -67l-43 47zM40 706h369v-85h-279v-198h276v-78h-276v-262h282v-83h-372v706z" />
    <glyph glyph-name="Edieresis" unicode="&#xcb;" horiz-adv-x="453" 
d="M292 880h12q18 0 33 -18t15 -35q0 -27 -17.5 -43.5t-43.5 -16.5q-21 0 -38 17t-17 38q0 24 16 41t40 17zM123 881q21 0 38 -17t17 -38q0 -24 -16.5 -41.5t-40.5 -17.5q-25 0 -41.5 15.5t-16.5 40.5q0 26 17 42t43 16zM40 706h369v-85h-279v-198h276v-78h-276v-262h282
v-83h-372v706z" />
    <glyph glyph-name="Igrave" unicode="&#xcc;" horiz-adv-x="197" 
d="M36 905l155 -106l-37 -59l-166 92zM59 706h90v-706h-90v706z" />
    <glyph glyph-name="Iacute" unicode="&#xcd;" horiz-adv-x="197" 
d="M156 906l45 -73l-165 -92l-36 57zM59 706h90v-706h-90v706z" />
    <glyph glyph-name="Icircumflex" unicode="&#xce;" horiz-adv-x="197" 
d="M87 901l155 -108l-44 -46l-111 67l-108 -67l-44 47zM53 706h90v-706h-90v706z" />
    <glyph glyph-name="Idieresis" unicode="&#xcf;" horiz-adv-x="197" 
d="M182 880q18 0 33 -18t15 -36q0 -23 -16 -41t-40 -18t-41.5 15.5t-17.5 39.5q0 29 18.5 43.5t48.5 14.5zM2 881q21 0 37 -17t16 -38q0 -24 -15.5 -41.5t-39.5 -17.5q-23 0 -41 16t-18 40q0 25 17.5 41.5t43.5 16.5zM52 706h90v-706h-90v706z" />
    <glyph glyph-name="Ntilde" unicode="&#xd1;" horiz-adv-x="689" 
d="M241 888q27 0 61 -18q76 -40 87 -40q16 0 30 19q2 2 20 34l56 -27q-22 -44 -43 -64q-29 -27 -71 -27q-28 0 -75 28t-59 28q-13 0 -26 -19q-6 -9 -18 -31l-55 24q10 36 33 62q28 31 60 31zM26 720h22l168 -179l169 -179l166 -182v526h83v-720h-22l-465 501l-34 39v-526
h-87v720z" />
    <glyph glyph-name="Ograve" unicode="&#xd2;" horiz-adv-x="768" 
d="M294 905l156 -106l-37 -59l-165 92zM364 717q158 0 263.5 -101.5t105.5 -259.5q0 -154 -107 -261t-262 -107q-161 0 -264 103t-103 265q0 155 106 258t261 103zM358 72q122 0 201.5 80.5t79.5 203.5q0 121 -75.5 199.5t-197.5 78.5q-123 0 -199 -82t-76 -205
q0 -115 76 -195t191 -80z" />
    <glyph glyph-name="Oacute" unicode="&#xd3;" horiz-adv-x="768" 
d="M414 906l45 -73l-163 -92l-37 57zM364 717q158 0 263.5 -101.5t105.5 -259.5q0 -154 -107 -261t-262 -107q-161 0 -264 103t-103 265q0 155 106 258t261 103zM358 72q122 0 201.5 80.5t79.5 203.5q0 121 -75.5 199.5t-197.5 78.5q-123 0 -199 -82t-76 -205
q0 -115 76 -195t191 -80z" />
    <glyph glyph-name="Ocircumflex" unicode="&#xd4;" horiz-adv-x="768" 
d="M352 901l155 -108l-43 -46l-111 67l-109 -67l-43 47zM364 717q158 0 263.5 -101.5t105.5 -259.5q0 -154 -107 -261t-262 -107q-161 0 -264 103t-103 265q0 155 106 258t261 103zM358 72q122 0 201.5 80.5t79.5 203.5q0 121 -75.5 199.5t-197.5 78.5q-123 0 -199 -82
t-76 -205q0 -115 76 -195t191 -80z" />
    <glyph glyph-name="Otilde" unicode="&#xd5;" horiz-adv-x="768" 
d="M276 888q26 0 60 -18q76 -40 88 -40q16 0 30 19q14 25 20 34l56 -27q-23 -46 -44 -65q-28 -26 -72 -26q-27 0 -73 28t-59 28t-27 -19q-9 -12 -17 -31l-55 24q9 35 34.5 64t58.5 29zM365 717q158 0 263.5 -101.5t105.5 -259.5q0 -154 -107 -261t-262 -107q-161 0 -264 103
t-103 265q0 155 106 258t261 103zM359 72q122 0 201.5 80.5t79.5 203.5q0 121 -75.5 199.5t-197.5 78.5q-123 0 -199 -82t-76 -205q0 -115 76 -195t191 -80z" />
    <glyph glyph-name="Odieresis" unicode="&#xd6;" horiz-adv-x="768" 
d="M360 717q158 0 263.5 -101.5t105.5 -259.5q0 -155 -107.5 -261.5t-261.5 -106.5t-261 101t-107 254q0 161 103.5 267.5t264.5 106.5zM354 72q122 0 201.5 80.5t79.5 203.5q0 121 -75.5 199.5t-196.5 78.5q-125 0 -200.5 -81t-75.5 -206q0 -115 76 -195t191 -80zM694 728
q22 0 39 -16t17 -39q0 -25 -16 -42t-42 -17q-23 0 -39 18t-16 41t17 39t40 16zM26 728q22 0 41.5 -15.5t19.5 -37.5q0 -26 -17 -44t-43 -18q-22 0 -39 17t-17 40q0 22 17 40t38 18z" />
    <glyph glyph-name="Oslash" unicode="&#xd8;" horiz-adv-x="768" 
d="M78 112q-83 105 -83 233q0 160 108 266t268 106q62 0 125 -24q56 -21 111 -63l90 87l40 -42l-88 -87q41 -59 61.5 -114.5t20.5 -120.5q0 -160 -107.5 -262.5t-267.5 -102.5q-129 0 -236 82l-90 -84l-40 40zM547 570q-27 32 -79 49t-100 17q-121 0 -202 -80t-81 -202
q0 -53 12.5 -92t42.5 -89zM364 67q121 0 199.5 84.5t78.5 206.5q0 49 -14 89q-10 30 -41 81l-407 -397q35 -33 83 -48.5t101 -15.5z" />
    <glyph glyph-name="Ugrave" unicode="&#xd9;" horiz-adv-x="611" 
d="M223 905l156 -106l-36 -59l-167 92zM31 706h89v-436q0 -94 38 -143q42 -54 135 -54q83 0 129.5 46.5t46.5 130.5v456h87v-442q0 -137 -64.5 -206.5t-200.5 -69.5q-130 0 -195 67t-65 198v453z" />
    <glyph glyph-name="Uacute" unicode="&#xda;" horiz-adv-x="611" 
d="M343 906l46 -73l-165 -92l-36 57zM31 706h89v-436q0 -94 38 -143q42 -54 135 -54q83 0 129.5 46.5t46.5 130.5v456h87v-442q0 -137 -64.5 -206.5t-200.5 -69.5q-130 0 -195 67t-65 198v453z" />
    <glyph glyph-name="Ucircumflex" unicode="&#xdb;" horiz-adv-x="611" 
d="M281 901l156 -108l-45 -46l-111 67l-108 -67l-44 47zM31 706h89v-436q0 -94 38 -143q42 -54 135 -54q83 0 129.5 46.5t46.5 130.5v456h87v-442q0 -137 -64.5 -206.5t-200.5 -69.5q-130 0 -195 67t-65 198v453z" />
    <glyph glyph-name="Udieresis" unicode="&#xdc;" horiz-adv-x="611" 
d="M31 706h89v-436q0 -94 38 -143q42 -54 135 -54q83 0 129.5 46.5t46.5 130.5v456h87v-442q0 -137 -64.5 -206.5t-200.5 -69.5q-130 0 -195 67t-65 198v453zM367 716q22 0 38.5 -14.5t16.5 -36.5q0 -25 -16 -40t-41 -15q-20 0 -34.5 15.5t-14.5 37.5t14.5 37.5t36.5 15.5z
M221 716q21 0 35.5 -16.5t14.5 -38.5q0 -21 -16 -36t-36 -15q-21 0 -37 15t-16 36q0 23 16 39t39 16z" />
    <glyph glyph-name="germandbls" unicode="&#xdf;" horiz-adv-x="512" 
d="M-15 441h61l1 54q0 124 30 181q42 80 155 80q86 0 138 -52t52 -138q0 -99 -90 -134q76 -15 111 -66t35 -131q0 -96 -55 -164q-59 -72 -153 -72l-60 2v75l33 -3q75 0 112 43t37 119q0 88 -52 118q-39 23 -135 23v74q62 0 97 24q40 28 40 88q0 53 -31 85t-84 32
q-54 0 -79 -43q-20 -34 -20 -93l1 -542h-82v367h-62v73z" />
    <glyph glyph-name="agrave" unicode="&#xe0;" 
d="M176 658l125 -131l-46 -38l-144 118zM365 435h78v-435h-78l-1 69q-31 -41 -68 -59.5t-88 -18.5q-94 0 -149 68q-51 63 -51 159q0 93 59 159.5t151 66.5q43 0 80 -20q29 -16 67 -51v62zM232 64q64 0 101 43t37 109q0 62 -35 107q-38 49 -98 49q-68 0 -107.5 -43.5
t-39.5 -112.5q0 -66 38 -109t104 -43z" />
    <glyph glyph-name="aacute" unicode="&#xe1;" 
d="M274 658l63 -51l-143 -118l-46 38zM365 435h78v-435h-78l-1 69q-31 -41 -68 -59.5t-88 -18.5q-94 0 -149 68q-51 63 -51 159q0 93 59 159.5t151 66.5q43 0 80 -20q29 -16 67 -51v62zM232 64q64 0 101 43t37 109q0 62 -35 107q-38 49 -98 49q-68 0 -107.5 -43.5
t-39.5 -112.5q0 -66 38 -109t104 -43z" />
    <glyph glyph-name="acircumflex" unicode="&#xe2;" 
d="M223 657l134 -123l-44 -44l-90 79l-95 -80l-43 42zM365 435h78v-435h-78l-1 69q-31 -41 -68 -59.5t-88 -18.5q-94 0 -149 68q-51 63 -51 159q0 93 59 159.5t151 66.5q43 0 80 -20q29 -16 67 -51v62zM232 64q64 0 101 43t37 109q0 62 -35 107q-38 49 -98 49
q-68 0 -107.5 -43.5t-39.5 -112.5q0 -66 38 -109t104 -43z" />
    <glyph glyph-name="atilde" unicode="&#xe3;" 
d="M144 646q29 0 64 -18q75 -39 86 -39q12 0 24 12q5 5 27 41l56 -27q-20 -35 -30 -48q-32 -43 -79 -43q-32 0 -80 28t-59 28q-17 0 -32 -27l-12 -24l-55 25q9 33 32 60q27 32 58 32zM365 435h78v-435h-78l-1 69q-31 -41 -68 -59.5t-88 -18.5q-94 0 -149 68q-51 63 -51 159
q0 93 59 159.5t151 66.5q43 0 80 -20q29 -16 67 -51v62zM232 64q64 0 101 43t37 109q0 62 -35 107q-38 49 -98 49q-68 0 -107.5 -43.5t-39.5 -112.5q0 -66 38 -109t104 -43z" />
    <glyph glyph-name="adieresis" unicode="&#xe4;" 
d="M365 435h78v-435h-78v69q-33 -43 -68 -60.5t-88 -17.5q-92 0 -149 69q-53 65 -53 159q0 92 59.5 158.5t151.5 66.5q43 0 80 -20q29 -16 67 -51v62zM229 64q67 0 104 42t37 110q0 63 -34 107q-38 49 -99 49q-67 0 -107.5 -43.5t-40.5 -111.5q0 -66 37.5 -109.5
t102.5 -43.5zM323 657q24 0 42.5 -15.5t18.5 -39.5q0 -23 -16.5 -41.5t-39.5 -18.5q-27 0 -43 17t-16 44q0 20 17 37t37 17zM150 657q26 0 42 -17t16 -43q0 -23 -18 -39t-41 -16t-39.5 17.5t-16.5 40.5q0 22 17.5 39.5t39.5 17.5z" />
    <glyph glyph-name="aring" unicode="&#xe5;" 
d="M245 676q37 0 64.5 -27.5t27.5 -64.5q0 -40 -27 -68t-68 -28q-39 0 -66 28t-27 67t28 66t68 27zM243 538q19 0 32 12t13 32q0 18 -14 32t-32 14q-19 0 -31.5 -13.5t-12.5 -32.5q0 -20 12 -32t33 -12zM365 435h78v-435h-78l-1 69q-31 -41 -68 -59.5t-88 -18.5
q-94 0 -149 68q-51 63 -51 159q0 93 59 159.5t151 66.5q43 0 80 -20q29 -16 67 -51v62zM232 64q64 0 101 43t37 109q0 62 -35 107q-38 49 -98 49q-68 0 -107.5 -43.5t-39.5 -112.5q0 -66 38 -109t104 -43z" />
    <glyph glyph-name="ae" unicode="&#xe6;" horiz-adv-x="708" 
d="M264 264q0 50 -30 80t-81 30q-39 0 -74 -10t-66 -33l6 84q42 15 75 22t71 7q48 0 86.5 -19.5t59.5 -61.5q39 44 76.5 62.5t94.5 18.5q98 0 150 -74q46 -65 46 -167h-329q0 -53 35.5 -95.5t88.5 -42.5q52 0 81 20q17 12 59 61l56 -44q-28 -49 -80.5 -80.5t-108.5 -31.5
q-49 0 -95 22t-76 61q-51 -52 -81.5 -67t-66.5 -15q-72 0 -120 35q-54 40 -54 109q0 67 46 108t115 41q60 0 115 -38zM160 61q42 0 71 28t34 70l-1 3q-21 26 -46.5 39.5t-58.5 13.5q-90 0 -90 -87q0 -27 30.5 -47t60.5 -20zM597 270q-11 49 -41 78q-33 32 -81 32t-82 -31
t-40 -79h244z" />
    <glyph glyph-name="ccedilla" unicode="&#xe7;" horiz-adv-x="374" 
d="M196 -33l64 -51l-106 -120l-54 43zM360 328q-31 20 -60.5 29.5t-64.5 9.5q-57 0 -98 -46t-41 -105q0 -62 42.5 -103.5t103.5 -41.5q67 0 118 48l1 -95q-27 -17 -59 -25t-66 -8q-93 0 -157.5 63.5t-64.5 156.5q0 100 64.5 166.5t164.5 66.5q29 0 61.5 -8.5t55.5 -23.5v-84
z" />
    <glyph glyph-name="egrave" unicode="&#xe8;" horiz-adv-x="453" 
d="M156 658l126 -131l-47 -38l-143 118zM90 204v-19q0 -46 40.5 -84t87.5 -38q44 0 77 20.5t57 60.5l60 -43q-40 -57 -84.5 -83.5t-109.5 -26.5q-90 0 -149.5 64.5t-59.5 156.5q0 100 54 164q58 69 156 69q93 0 148 -65q52 -61 52 -156v-20h-329zM339 272q-7 46 -36 76
q-32 33 -77 33q-54 0 -85.5 -27.5t-46.5 -81.5h245z" />
    <glyph glyph-name="eacute" unicode="&#xe9;" horiz-adv-x="453" 
d="M254 658l64 -51l-144 -118l-46 38zM90 204v-19q0 -46 40.5 -84t87.5 -38q44 0 77 20.5t57 60.5l60 -43q-40 -57 -84.5 -83.5t-109.5 -26.5q-90 0 -149.5 64.5t-59.5 156.5q0 100 54 164q58 69 156 69q93 0 148 -65q52 -61 52 -156v-20h-329zM339 272q-7 46 -36 76
q-32 33 -77 33q-54 0 -85.5 -27.5t-46.5 -81.5h245z" />
    <glyph glyph-name="ecircumflex" unicode="&#xea;" horiz-adv-x="453" 
d="M204 657l133 -123l-44 -44l-90 79l-95 -80l-43 42zM90 204v-19q0 -46 40.5 -84t87.5 -38q44 0 77 20.5t57 60.5l60 -43q-40 -57 -84.5 -83.5t-109.5 -26.5q-90 0 -149.5 64.5t-59.5 156.5q0 100 54 164q58 69 156 69q93 0 148 -65q52 -61 52 -156v-20h-329zM339 272
q-7 46 -36 76q-32 33 -77 33q-54 0 -85.5 -27.5t-46.5 -81.5h245z" />
    <glyph glyph-name="edieresis" unicode="&#xeb;" horiz-adv-x="453" 
d="M293 646q22 0 39 -16t17 -39q0 -25 -15.5 -41.5t-39.5 -16.5q-25 0 -42.5 15.5t-17.5 38.5q0 25 17 42t42 17zM121 648q21 0 37.5 -17.5t16.5 -38.5q0 -24 -16 -41t-39 -17q-25 0 -42.5 16.5t-17.5 40.5q0 23 19 40t42 17zM90 205v-19q0 -46 40.5 -84t87.5 -38
q44 0 77 20.5t57 60.5l60 -43q-40 -57 -84.5 -83.5t-109.5 -26.5q-90 0 -149.5 64.5t-59.5 156.5q0 100 54 164q58 69 156 69q93 0 148 -65q52 -61 52 -156v-20h-329zM339 273q-7 46 -36 76q-32 33 -77 33q-54 0 -85.5 -27.5t-46.5 -81.5h245z" />
    <glyph glyph-name="igrave" unicode="&#xec;" horiz-adv-x="177" 
d="M34 658l125 -131l-47 -38l-143 118zM50 435h83v-435h-83v435z" />
    <glyph glyph-name="iacute" unicode="&#xed;" horiz-adv-x="177" 
d="M135 658l64 -51l-143 -118l-46 38zM54 435h83v-435h-83v435z" />
    <glyph glyph-name="icircumflex" unicode="&#xee;" horiz-adv-x="177" 
d="M77 657l134 -123l-45 -44l-90 79l-94 -80l-43 42zM46 435h83v-435h-83v435z" />
    <glyph glyph-name="idieresis" unicode="&#xef;" horiz-adv-x="177" 
d="M106 598q0 20 18.5 34.5t40.5 14.5q17 0 36 -14t19 -31v-20q0 -20 -16.5 -34.5t-38.5 -14.5q-59 0 -59 65zM-8 646q21 0 37.5 -17.5t16.5 -38.5q0 -25 -15.5 -41.5t-40.5 -16.5q-24 0 -41 15t-17 40q0 26 17.5 42.5t42.5 16.5zM44 434h83v-435h-83v435z" />
    <glyph glyph-name="ntilde" unicode="&#xf1;" horiz-adv-x="453" 
d="M127 646q30 0 64 -18q77 -40 87 -40q11 0 23 12t27 42l57 -27q-17 -40 -42 -63q-30 -28 -69 -28q-33 0 -80 28t-58 28t-19.5 -9.5t-24.5 -41.5l-55 24q23 48 33 61q24 32 57 32zM31 435h80v-58q41 35 66 48q36 19 80 19q76 0 114 -49q35 -45 35 -124v-271h-81v273
q0 41 -24 70.5t-65 29.5q-62 0 -93.5 -40t-31.5 -104v-229h-80v435z" />
    <glyph glyph-name="ograve" unicode="&#xf2;" 
d="M175 658l125 -131l-46 -38l-144 118zM243 444q92 0 155.5 -67.5t63.5 -161.5q0 -100 -67 -162t-168 -62q-92 0 -156.5 64.5t-64.5 157.5q0 100 67.5 165.5t169.5 65.5zM232 67q64 0 104.5 43.5t40.5 107.5q0 63 -41 106t-104 43q-56 0 -99 -44t-43 -101q0 -65 39 -110
t103 -45z" />
    <glyph glyph-name="oacute" unicode="&#xf3;" 
d="M273 658l63 -51l-143 -118l-46 38zM243 444q92 0 155.5 -67.5t63.5 -161.5q0 -100 -67 -162t-168 -62q-92 0 -156.5 64.5t-64.5 157.5q0 100 67.5 165.5t169.5 65.5zM232 67q64 0 104.5 43.5t40.5 107.5q0 63 -41 106t-104 43q-56 0 -99 -44t-43 -101q0 -65 39 -110
t103 -45z" />
    <glyph glyph-name="ocircumflex" unicode="&#xf4;" 
d="M222 657l134 -123l-44 -44l-90 79l-95 -80l-43 42zM243 444q92 0 155.5 -67.5t63.5 -161.5q0 -100 -67 -162t-168 -62q-92 0 -156.5 64.5t-64.5 157.5q0 100 67.5 165.5t169.5 65.5zM232 67q64 0 104.5 43.5t40.5 107.5q0 63 -41 106t-104 43q-56 0 -99 -44t-43 -101
q0 -65 39 -110t103 -45z" />
    <glyph glyph-name="otilde" unicode="&#xf5;" 
d="M143 646q29 0 64 -18q75 -39 86 -39q12 0 24 12q5 5 27 41l56 -27q-20 -35 -30 -48q-32 -43 -79 -43q-32 0 -80 28t-59 28q-17 0 -32 -27l-12 -24l-55 25q9 33 32 60q27 32 58 32zM243 444q92 0 155.5 -67.5t63.5 -161.5q0 -100 -67 -162t-168 -62q-92 0 -156.5 64.5
t-64.5 157.5q0 100 67.5 165.5t169.5 65.5zM232 67q64 0 104.5 43.5t40.5 107.5q0 63 -41 106t-104 43q-56 0 -99 -44t-43 -101q0 -65 39 -110t103 -45z" />
    <glyph glyph-name="odieresis" unicode="&#xf6;" 
d="M243 444q92 0 155.5 -67.5t63.5 -160.5q0 -99 -67 -162t-167 -63q-92 0 -156.5 64.5t-64.5 157.5q0 100 67.5 165.5t168.5 65.5zM232 67q65 0 105.5 42.5t40.5 108.5q0 62 -41 106t-104 44q-57 0 -100 -44t-43 -102q0 -65 39 -110t103 -45zM321 657q28 0 43.5 -18.5
t15.5 -47.5q0 -18 -18.5 -33.5t-37.5 -15.5q-23 0 -41 16t-18 39q0 24 16 42t40 18zM148 657q25 0 41 -17t16 -43q0 -23 -18 -39t-41 -16q-24 0 -40 17t-16 41q0 23 17 40t41 17z" />
    <glyph glyph-name="divide" unicode="&#xf7;" horiz-adv-x="513" 
d="M-7 279h505v-52h-505v52zM240 438q22 0 38 -16t16 -38t-16 -38t-38 -16q-21 0 -37 16t-16 38t15 38t38 16zM240 176q22 0 38 -16t16 -38t-16 -38t-38 -16q-21 0 -37 16t-16 38t15 38t38 16z" />
    <glyph glyph-name="oslash" unicode="&#xf8;" 
d="M60 62l-37 71q-17 38 -17 80q0 99 64.5 164.5t163.5 65.5q74 0 136 -42l58 62l35 -32l-57 -62q27 -35 41.5 -69t14.5 -74q0 -102 -63.5 -168.5t-165.5 -66.5q-72 0 -135 41l-62 -68l-34 32zM226 64q68 0 113.5 41.5t45.5 108.5q0 26 -7.5 52t-22.5 46l-206 -225
q18 -11 36.5 -17t40.5 -6zM322 346q-24 15 -42 20.5t-46 5.5q-66 0 -108.5 -45.5t-42.5 -112.5q0 -37 11 -60q2 -5 21 -34z" />
    <glyph glyph-name="ugrave" unicode="&#xf9;" horiz-adv-x="453" 
d="M160 658l126 -131l-47 -38l-143 118zM31 435h82v-229q0 -69 20 -101q25 -41 90 -41q57 0 83 45q20 35 20 98v228h81v-256q0 -86 -49 -137t-135 -51q-102 0 -149 58q-43 53 -43 158v228z" />
    <glyph glyph-name="uacute" unicode="&#xfa;" horiz-adv-x="453" 
d="M258 658l64 -51l-144 -118l-46 38zM31 435h82v-229q0 -69 20 -101q25 -41 90 -41q57 0 83 45q20 35 20 98v228h81v-256q0 -86 -49 -137t-135 -51q-102 0 -149 58q-43 53 -43 158v228z" />
    <glyph glyph-name="ucircumflex" unicode="&#xfb;" horiz-adv-x="453" 
d="M208 657l133 -123l-44 -44l-90 79l-95 -80l-43 42zM31 435h82v-229q0 -69 20 -101q25 -41 90 -41q57 0 83 45q20 35 20 98v228h81v-256q0 -86 -49 -137t-135 -51q-102 0 -149 58q-43 53 -43 158v228z" />
    <glyph glyph-name="udieresis" unicode="&#xfc;" horiz-adv-x="453" 
d="M31 435h81v-229q0 -68 20 -100q26 -41 90 -41q57 0 83 44q21 36 21 98v228h80v-256q0 -87 -48.5 -137.5t-135.5 -50.5q-104 0 -150 57q-41 51 -41 159v228zM303 657q23 0 41.5 -15.5t18.5 -39.5q0 -25 -15.5 -42.5t-40.5 -17.5q-22 0 -40.5 16.5t-18.5 38.5
q0 23 15.5 41.5t39.5 18.5zM131 657q23 0 40 -16t17 -40q0 -26 -16.5 -42.5t-42.5 -16.5q-21 0 -38 17t-17 38q0 24 16 42t41 18z" />
    <glyph glyph-name="ydieresis" unicode="&#xff;" horiz-adv-x="433" 
d="M281 646q27 0 41.5 -18t14.5 -46q0 -20 -17.5 -34.5t-38.5 -14.5q-24 0 -41.5 15.5t-17.5 38.5q0 26 16.5 42.5t42.5 16.5zM108 648q21 0 37.5 -17.5t16.5 -38.5q0 -25 -15.5 -41.5t-39.5 -16.5t-41.5 15.5t-17.5 39.5q0 25 17 42t43 17zM69 436q75 -139 144 -282
l134 282h85l-299 -626h-84l120 252l-195 374h95z" />
    <glyph glyph-name="dotlessi" unicode="&#x131;" horiz-adv-x="177" 
d="M49 435h83v-435h-83v435z" />
    <glyph glyph-name="caron" unicode="&#x2c7;" horiz-adv-x="0" 
d="M-93 657l90 -80l94 81l42 -43l-137 -125l-133 122z" />
    <glyph glyph-name="fraction" unicode="&#x2215;" horiz-adv-x="118" 
d="M202 736l39 -20l-371 -748l-38 19z" />
    </font>
</defs>
</svg>
